# xmcd
#
# Track frame offsets:
#	151
#	15602
#	32543
#	48048
#	66079
#	86425
#	104596
#	124421
#	147074
#	160915
#	178981
#	198989
#	218164
#	237870
#	253720
#	269011
#
# Disc length: 3974 seconds
#
# Revision: 1
# Processed by: cddbd v1.5.1PL0 Copyright (c) Steve Scherf et al.
# Submitted via: audiograbber 1.83.01
#
DISCID=e30f8410
DTITLE=No Doubt - The Singles 1992 - 2003
DYEAR=1900
DGENRE=
TTITLE0=Just A Girl
TTITLE1=It´s My Life
TTITLE2=Hey Baby
TTITLE3=Bathwater
TTITLE4=Sunday Morning
TTITLE5=Hella Good
TTITLE6=New
TTITLE7=Underneath It All
TTITLE8=Excuse Me Mr.
TTITLE9=Running
TTITLE10=Spiderwebs
TTITLE11=Simple Kind Of Life
TTITLE12=Don´t Speak
TTITLE13=Ex - Girlfriend
TTITLE14=Trapped In A Box
TTITLE15=Girls Get The Bass In The Back (Bonus Track)
EXTD=
EXTT0=
EXTT1=
EXTT2=
EXTT3=
EXTT4=
EXTT5=
EXTT6=
EXTT7=
EXTT8=
EXTT9=
EXTT10=
EXTT11=
EXTT12=
EXTT13=
EXTT14=
EXTT15=
PLAYORDER=
